G04 #@! TF.FileFunction,Copper,L2,Bot,Signal*
%FSLAX46Y46*%
G04 Gerber Fmt 4.6, Leading zero omitted, Abs format (unit mm)*
G04 Created by KiCad (PCBNEW 4.0.6) date Thursday, April 27, 2017 'PMt' 03:49:24 PM*
%MOMM*%
%LPD*%
G01*
G04 APERTURE LIST*
%ADD10C,0.100000*%
%ADD11C,2.500000*%
%ADD12O,2.413000X2.540000*%
%ADD13C,2.600000*%
%ADD14C,1.524000*%
%ADD15C,1.016000*%
%ADD16C,0.254000*%
G04 APERTURE END LIST*
D10*
D11*
X127000000Y-101600000D03*
D12*
X129540000Y-99060000D03*
X124460000Y-99060000D03*
D13*
X124460000Y-104140000D03*
X129540000Y-104140000D03*
D14*
X127000000Y-101600000D02*
X132080000Y-101600000D01*
D15*
X124460000Y-104140000D02*
X124460000Y-99060000D01*
X129540000Y-104140000D02*
X124460000Y-104140000D01*
X129540000Y-99060000D02*
X124460000Y-99060000D01*
D16*
G36*
X164078624Y-97189774D02*
X164289395Y-97330606D01*
X164430226Y-97541377D01*
X164491600Y-97849923D01*
X164491600Y-105350077D01*
X164430226Y-105658623D01*
X164289395Y-105869394D01*
X164078624Y-106010226D01*
X163770077Y-106071600D01*
X129667000Y-106071600D01*
X129667000Y-105973511D01*
X129903086Y-105973717D01*
X130577181Y-105695187D01*
X131093374Y-105179893D01*
X131373081Y-104506286D01*
X131373717Y-103776914D01*
X131095187Y-103102819D01*
X130579893Y-102586626D01*
X129906286Y-102306919D01*
X129667000Y-102306710D01*
X129667000Y-100873469D01*
X130205831Y-100766289D01*
X130770295Y-100389126D01*
X131147458Y-99824662D01*
X131279900Y-99158831D01*
X131279900Y-98961169D01*
X131147458Y-98295338D01*
X130770295Y-97730874D01*
X130205831Y-97353711D01*
X129667000Y-97246531D01*
X129667000Y-97128400D01*
X163770077Y-97128400D01*
X164078624Y-97189774D01*
X164078624Y-97189774D01*
G37*
X164078624Y-97189774D02*
X164289395Y-97330606D01*
X164430226Y-97541377D01*
X164491600Y-97849923D01*
X164491600Y-105350077D01*
X164430226Y-105658623D01*
X164289395Y-105869394D01*
X164078624Y-106010226D01*
X163770077Y-106071600D01*
X129667000Y-106071600D01*
X129667000Y-105973511D01*
X129903086Y-105973717D01*
X130577181Y-105695187D01*
X131093374Y-105179893D01*
X131373081Y-104506286D01*
X131373717Y-103776914D01*
X131095187Y-103102819D01*
X130579893Y-102586626D01*
X129906286Y-102306919D01*
X129667000Y-102306710D01*
X129667000Y-100873469D01*
X130205831Y-100766289D01*
X130770295Y-100389126D01*
X131147458Y-99824662D01*
X131279900Y-99158831D01*
X131279900Y-98961169D01*
X131147458Y-98295338D01*
X130770295Y-97730874D01*
X130205831Y-97353711D01*
X129667000Y-97246531D01*
X129667000Y-97128400D01*
X163770077Y-97128400D01*
X164078624Y-97189774D01*
G36*
X129006600Y-100304600D02*
X128226769Y-100304600D01*
X128011534Y-100088989D01*
X127356297Y-99816910D01*
X126646816Y-99816291D01*
X125991105Y-100087225D01*
X125488989Y-100588466D01*
X125216910Y-101243703D01*
X125216291Y-101953184D01*
X125487225Y-102608895D01*
X125988466Y-103111011D01*
X126643703Y-103383090D01*
X127353184Y-103383709D01*
X128008895Y-103112775D01*
X128226649Y-102895400D01*
X129006600Y-102895400D01*
X129006600Y-106071600D01*
X90229923Y-106071600D01*
X89921377Y-106010226D01*
X89710606Y-105869395D01*
X89569774Y-105658624D01*
X89508400Y-105350077D01*
X89508400Y-97849923D01*
X89569774Y-97541376D01*
X89710606Y-97330605D01*
X89921377Y-97189774D01*
X90229923Y-97128400D01*
X129006600Y-97128400D01*
X129006600Y-100304600D01*
X129006600Y-100304600D01*
G37*
X129006600Y-100304600D02*
X128226769Y-100304600D01*
X128011534Y-100088989D01*
X127356297Y-99816910D01*
X126646816Y-99816291D01*
X125991105Y-100087225D01*
X125488989Y-100588466D01*
X125216910Y-101243703D01*
X125216291Y-101953184D01*
X125487225Y-102608895D01*
X125988466Y-103111011D01*
X126643703Y-103383090D01*
X127353184Y-103383709D01*
X128008895Y-103112775D01*
X128226649Y-102895400D01*
X129006600Y-102895400D01*
X129006600Y-106071600D01*
X90229923Y-106071600D01*
X89921377Y-106010226D01*
X89710606Y-105869395D01*
X89569774Y-105658624D01*
X89508400Y-105350077D01*
X89508400Y-97849923D01*
X89569774Y-97541376D01*
X89710606Y-97330605D01*
X89921377Y-97189774D01*
X90229923Y-97128400D01*
X129006600Y-97128400D01*
X129006600Y-100304600D01*
M02*
