M48
;DRILL file {KiCad 4.0.5} date Monday, March 20, 2017 'PMt' 03:41:10 PM
;FORMAT={-:-/ absolute / inch / decimal}
FMAT,2
INCH,TZ
T1C0.032
T2C0.039
T3C0.040
T4C0.043
T5C0.047
T6C0.059
T7C0.063
T8C0.120
%
G90
G05
M72
T1
X2.8Y-2.775
X2.9Y-2.775
X3.Y-2.775
X3.6Y-2.775
X3.7Y-2.775
X3.7Y-3.
X3.7Y-4.45
X3.7016Y-2.875
X3.7984Y-3.
X3.7984Y-4.45
X3.8Y-2.775
X3.8Y-2.875
X3.9Y-2.775
X4.5638Y-2.3
X4.5638Y-2.4
X4.5638Y-2.5
X4.6425Y-2.3
X4.6425Y-2.4
X4.6425Y-2.5
X4.7213Y-2.3
X4.7213Y-2.4
X4.7213Y-2.5
X4.8Y-2.3
X4.8Y-2.4
X4.8Y-2.5
T2
X3.6Y-4.55
X3.6Y-4.675
X3.9Y-4.55
X3.9Y-4.675
X4.4Y-3.65
X4.4Y-3.95
T3
X2.325Y-4.675
X2.4Y-3.25
X2.4Y-3.35
X2.4Y-4.35
X2.425Y-4.55
X2.425Y-4.85
X2.5Y-3.35
X2.5Y-4.35
X2.525Y-4.85
X2.6Y-3.35
X2.6Y-4.35
X2.625Y-4.85
X2.7Y-3.35
X2.7Y-4.35
X2.725Y-4.85
X2.8Y-3.35
X2.8Y-4.35
X2.825Y-4.85
X2.9Y-3.35
X2.9Y-4.35
X3.Y-3.35
X3.Y-4.35
X3.1Y-3.35
X3.1Y-4.35
X3.1Y-4.85
X3.2Y-3.35
X3.2Y-4.35
X3.2Y-4.85
X3.3Y-3.35
X3.3Y-4.35
X3.3Y-4.85
X3.4Y-3.35
X3.4Y-4.35
X3.4Y-4.85
X3.45Y-4.55
X3.45Y-4.675
X3.5Y-3.35
X3.5Y-4.35
X3.5Y-4.85
X3.5Y-3.
X3.6Y-2.875
X3.6Y-3.215
X3.6Y-3.35
X3.6Y-4.35
X3.6Y-4.85
X3.7Y-3.35
X3.7Y-4.35
X3.7Y-4.85
X3.8Y-3.35
X3.8Y-4.35
X3.8Y-4.85
X3.9Y-3.35
X3.9Y-4.35
X4.Y-3.35
X4.Y-4.35
X4.1Y-3.35
X4.1Y-4.35
X4.1Y-4.85
X4.2Y-3.35
X4.2Y-4.35
X4.2Y-4.85
X4.3Y-3.35
X4.3Y-4.35
X4.3Y-4.75
X4.3Y-4.85
X4.4Y-3.35
X4.4Y-4.35
X4.4Y-4.85
X4.412Y-4.75
X4.5Y-3.35
X4.5Y-4.35
X4.5Y-4.85
X4.588Y-4.4503
X4.6Y-3.35
X4.6Y-4.35
X4.6Y-4.85
X4.7Y-3.35
X4.7Y-4.35
X4.7Y-4.45
T4
X2.4Y-3.55
X2.4Y-4.15
X2.5Y-3.55
X2.5Y-3.65
X2.5Y-4.15
X2.6Y-3.55
X2.6Y-4.15
X2.7Y-3.55
X2.7Y-3.65
X2.7Y-4.15
X2.8Y-3.55
X2.8Y-3.65
X2.8Y-4.15
X2.9Y-3.55
X2.9Y-3.65
X2.9Y-4.15
X3.Y-3.55
X3.Y-4.15
X3.1Y-3.55
X3.1Y-4.15
X3.2Y-3.55
X3.2Y-4.15
X3.3Y-3.55
X3.3Y-4.15
X3.4Y-3.55
X3.4Y-4.15
X3.5Y-3.55
X3.5Y-4.15
X3.6Y-3.55
X3.6Y-4.15
X3.7Y-3.55
X3.7Y-4.15
X3.8Y-3.55
X3.8Y-4.15
X3.9Y-3.55
X3.9Y-4.15
X4.Y-3.55
X4.Y-4.15
X4.1Y-3.55
X4.1Y-4.15
X4.2Y-3.55
X4.2Y-3.65
X4.2Y-3.75
X4.2Y-3.85
X4.2Y-3.95
X4.2Y-4.05
X4.2Y-4.15
X4.3Y-3.55
X4.3Y-4.15
X4.4Y-3.55
X4.4Y-4.15
X4.5Y-3.55
X4.5Y-4.15
X4.6Y-3.55
X4.6Y-4.15
X4.7Y-3.55
X4.7Y-4.15
T5
X2.175Y-3.25
X2.175Y-3.35
X4.4Y-3.1
X4.4Y-3.2
T6
X2.9Y-3.
T7
X2.8Y-2.9
X2.8Y-3.1
X3.Y-2.9
X3.Y-3.1
T8
X2.1Y-2.1
X2.1Y-4.9
X4.9Y-2.1
X4.9Y-4.9
T0
M30
