G04 #@! TF.FileFunction,Copper,L2,Bot,Signal*
%FSLAX46Y46*%
G04 Gerber Fmt 4.6, Leading zero omitted, Abs format (unit mm)*
G04 Created by KiCad (PCBNEW 4.0.5) date Monday, March 20, 2017 'PMt' 03:41:12 PM*
%MOMM*%
%LPD*%
G01*
G04 APERTURE LIST*
%ADD10C,2.000000*%
%ADD11R,1.727200X2.032000*%
%ADD12O,1.727200X2.032000*%
%ADD13C,1.998980*%
%ADD14C,1.600000*%
%ADD15R,1.600000X1.600000*%
%ADD16C,2.500000*%
%ADD17O,2.413000X2.540000*%
%ADD18C,2.600000*%
%ADD19R,1.300000X1.300000*%
%ADD20C,1.300000*%
%ADD21R,2.600000X1.727200*%
%ADD22O,2.600000X1.727200*%
%ADD23R,1.016000X1.350000*%
%ADD24O,1.016000X1.350000*%
%ADD25C,1.524000*%
%ADD26R,1.524000X1.524000*%
%ADD27C,4.064000*%
%ADD28C,2.032000*%
%ADD29C,1.016000*%
%ADD30C,0.406400*%
G04 APERTURE END LIST*
D10*
D11*
X116840000Y-123190000D03*
D12*
X114300000Y-123190000D03*
X111760000Y-123190000D03*
X109220000Y-123190000D03*
X106680000Y-123190000D03*
X104140000Y-123190000D03*
D11*
X71755000Y-123190000D03*
D12*
X69215000Y-123190000D03*
X66675000Y-123190000D03*
X64135000Y-123190000D03*
X61595000Y-123190000D03*
D11*
X96520000Y-123190000D03*
D12*
X93980000Y-123190000D03*
X91440000Y-123190000D03*
X88900000Y-123190000D03*
X86360000Y-123190000D03*
X83820000Y-123190000D03*
X81280000Y-123190000D03*
X78740000Y-123190000D03*
D11*
X60960000Y-110490000D03*
D12*
X63500000Y-110490000D03*
X66040000Y-110490000D03*
X68580000Y-110490000D03*
X71120000Y-110490000D03*
X73660000Y-110490000D03*
X76200000Y-110490000D03*
X78740000Y-110490000D03*
X81280000Y-110490000D03*
X83820000Y-110490000D03*
X86360000Y-110490000D03*
X88900000Y-110490000D03*
X91440000Y-110490000D03*
X93980000Y-110490000D03*
X96520000Y-110490000D03*
X99060000Y-110490000D03*
X101600000Y-110490000D03*
X104140000Y-110490000D03*
X106680000Y-110490000D03*
X109220000Y-110490000D03*
X111760000Y-110490000D03*
X114300000Y-110490000D03*
X116840000Y-110490000D03*
X119380000Y-110490000D03*
D11*
X60960000Y-85090000D03*
D12*
X63500000Y-85090000D03*
X66040000Y-85090000D03*
X68580000Y-85090000D03*
X71120000Y-85090000D03*
X73660000Y-85090000D03*
X76200000Y-85090000D03*
X78740000Y-85090000D03*
X81280000Y-85090000D03*
X83820000Y-85090000D03*
X86360000Y-85090000D03*
X88900000Y-85090000D03*
X91440000Y-85090000D03*
X93980000Y-85090000D03*
X96520000Y-85090000D03*
X99060000Y-85090000D03*
X101600000Y-85090000D03*
X104140000Y-85090000D03*
X106680000Y-85090000D03*
X109220000Y-85090000D03*
X111760000Y-85090000D03*
X114300000Y-85090000D03*
X116840000Y-85090000D03*
X119380000Y-85090000D03*
D13*
X99060000Y-115570000D03*
X91440000Y-115570000D03*
X99060000Y-118745000D03*
X91440000Y-118745000D03*
D14*
X101600000Y-105410000D03*
X104140000Y-105410000D03*
X106680000Y-105410000D03*
X109220000Y-105410000D03*
X99060000Y-105410000D03*
X96520000Y-105410000D03*
X93980000Y-105410000D03*
X111760000Y-105410000D03*
X114300000Y-105410000D03*
X116840000Y-105410000D03*
X119380000Y-105410000D03*
X106680000Y-102870000D03*
X106680000Y-100330000D03*
X106680000Y-97790000D03*
X106680000Y-95250000D03*
X106680000Y-92710000D03*
X119380000Y-90170000D03*
X116840000Y-90170000D03*
X114300000Y-90170000D03*
X111760000Y-90170000D03*
X109220000Y-90170000D03*
X106680000Y-90170000D03*
X104140000Y-90170000D03*
X101600000Y-90170000D03*
X91440000Y-105410000D03*
X88900000Y-105410000D03*
X86360000Y-105410000D03*
X83820000Y-105410000D03*
X81280000Y-105410000D03*
X78740000Y-105410000D03*
X76200000Y-105410000D03*
X73660000Y-105410000D03*
X71120000Y-105410000D03*
X68580000Y-105410000D03*
X66040000Y-105410000D03*
X63500000Y-105410000D03*
D15*
X60960000Y-105410000D03*
D14*
X99060000Y-90170000D03*
X96520000Y-90170000D03*
X93980000Y-90170000D03*
X91440000Y-90170000D03*
X88900000Y-90170000D03*
X86360000Y-90170000D03*
X83820000Y-90170000D03*
X81280000Y-90170000D03*
X78740000Y-90170000D03*
X76200000Y-90170000D03*
X73660000Y-90170000D03*
X71120000Y-90170000D03*
X68580000Y-90170000D03*
X66040000Y-90170000D03*
X63500000Y-90170000D03*
X60960000Y-90170000D03*
X63500000Y-92710000D03*
X68580000Y-92710000D03*
X71120000Y-92710000D03*
X73660000Y-92710000D03*
D16*
X73660000Y-76200000D03*
D17*
X76200000Y-73660000D03*
X71120000Y-73660000D03*
D18*
X71120000Y-78740000D03*
X76200000Y-78740000D03*
D19*
X94020000Y-73025000D03*
D20*
X96520000Y-73025000D03*
D19*
X96480000Y-113030000D03*
D20*
X93980000Y-113030000D03*
D13*
X111760000Y-100330000D03*
X111760000Y-92710000D03*
D21*
X111760000Y-81280000D03*
D22*
X111760000Y-78740000D03*
D21*
X55245000Y-85090000D03*
D22*
X55245000Y-82550000D03*
D23*
X121920000Y-63500000D03*
D24*
X119920000Y-63500000D03*
X117920000Y-63500000D03*
X115920000Y-63500000D03*
D23*
X121920000Y-60960000D03*
D24*
X119920000Y-60960000D03*
X117920000Y-60960000D03*
X115920000Y-60960000D03*
D23*
X121920000Y-58420000D03*
D24*
X119920000Y-58420000D03*
X117920000Y-58420000D03*
X115920000Y-58420000D03*
D19*
X93980000Y-76200000D03*
D20*
X96480000Y-76200000D03*
D25*
X76200000Y-70485000D03*
X73660000Y-70485000D03*
D26*
X71120000Y-70485000D03*
D25*
X93980000Y-70485000D03*
X91440000Y-70485000D03*
X99060000Y-70485000D03*
X96520000Y-70485000D03*
D27*
X53340000Y-53340000D03*
X124460000Y-53340000D03*
X124460000Y-124460000D03*
X53340000Y-124460000D03*
D28*
X59055000Y-118745000D03*
X87630000Y-118745000D03*
X87630000Y-115570000D03*
X61595000Y-115570000D03*
X116535201Y-113038711D03*
X112064813Y-120650000D03*
X119380000Y-113030000D03*
X109220000Y-120650000D03*
X88900002Y-76200000D03*
X60960000Y-82550000D03*
X91440000Y-73025000D03*
X91440000Y-81661000D03*
D29*
X83820000Y-124460000D02*
X84963000Y-125603000D01*
X84963000Y-125603000D02*
X97917000Y-125603000D01*
X99060000Y-124460000D02*
X99060000Y-119380000D01*
X97917000Y-125603000D02*
X99060000Y-124460000D01*
X99060000Y-119380000D02*
X99060000Y-116205000D01*
X83820000Y-124460000D02*
X82550000Y-125730000D01*
X82550000Y-125730000D02*
X70358000Y-125730000D01*
X70358000Y-125730000D02*
X69215000Y-124587000D01*
X69215000Y-124587000D02*
X69215000Y-123190000D01*
X106680000Y-100330000D02*
X111760000Y-100330000D01*
X96520000Y-105410000D02*
X96520000Y-104278630D01*
X96520000Y-104278630D02*
X100468630Y-100330000D01*
X100468630Y-100330000D02*
X105548630Y-100330000D01*
X105548630Y-100330000D02*
X106680000Y-100330000D01*
X104140000Y-123190000D02*
X103505000Y-123190000D01*
X103505000Y-123190000D02*
X99060000Y-118745000D01*
X99060000Y-115570000D02*
X96520000Y-113030000D01*
X96520000Y-113030000D02*
X96520000Y-110490000D01*
X69215000Y-123901202D02*
X69215000Y-123190000D01*
X83820000Y-123190000D02*
X83820000Y-124460000D01*
X96520000Y-105410000D02*
X96520000Y-110490000D01*
X66040000Y-85090000D02*
X66040000Y-90170000D01*
X96520000Y-73025000D02*
X96520000Y-85090000D01*
X96520000Y-70485000D02*
X96520000Y-73025000D01*
X96520000Y-90170000D02*
X96520000Y-85090000D01*
X60960000Y-105410000D02*
X60960000Y-110490000D01*
X71120000Y-70485000D02*
X71120000Y-73660000D01*
X76200000Y-70485000D02*
X76200000Y-73660000D01*
X64135000Y-123190000D02*
X64135000Y-123825000D01*
X64135000Y-123825000D02*
X63779410Y-124180590D01*
X63779410Y-124180590D02*
X63779410Y-124247212D01*
X63779410Y-124247212D02*
X62423622Y-125603000D01*
X62423622Y-125603000D02*
X60198000Y-125603000D01*
X60198000Y-125603000D02*
X59055000Y-124460000D01*
X59055000Y-124460000D02*
X59055000Y-118745000D01*
X60075482Y-99898189D02*
X56769001Y-103204670D01*
X78740000Y-90170000D02*
X78740000Y-91284738D01*
X78740000Y-91284738D02*
X70126549Y-99898189D01*
X56769001Y-103204670D02*
X56769001Y-116459001D01*
X56769001Y-116459001D02*
X58039001Y-117729001D01*
X70126549Y-99898189D02*
X60075482Y-99898189D01*
X58039001Y-117729001D02*
X59055000Y-118745000D01*
X91440000Y-123190000D02*
X91440000Y-118745000D01*
X91440000Y-118745000D02*
X87630000Y-118745000D01*
X78740000Y-84937600D02*
X78740000Y-85090000D01*
X78740000Y-85090000D02*
X78740000Y-90170000D01*
X81280000Y-90170000D02*
X81280000Y-91694000D01*
X81280000Y-91694000D02*
X71247000Y-101727000D01*
X71247000Y-101727000D02*
X60960000Y-101727000D01*
X58794649Y-103892351D02*
X58794649Y-108398309D01*
X58794649Y-112581691D02*
X58794649Y-112769649D01*
X60960000Y-101727000D02*
X58794649Y-103892351D01*
X58794649Y-108398309D02*
X58775599Y-108417359D01*
X58775599Y-108417359D02*
X58775599Y-112562641D01*
X58794649Y-112769649D02*
X61595000Y-115570000D01*
X58775599Y-112562641D02*
X58794649Y-112581691D01*
X91440000Y-115570000D02*
X87630000Y-115570000D01*
X61595000Y-115570000D02*
X61595000Y-123190000D01*
X93980000Y-123190000D02*
X93980000Y-117475000D01*
X93980000Y-117475000D02*
X92075000Y-115570000D01*
X91440000Y-115570000D02*
X92075000Y-115570000D01*
X81280000Y-84937600D02*
X81280000Y-85090000D01*
X81280000Y-85090000D02*
X81280000Y-90170000D01*
X116840000Y-112733912D02*
X116535201Y-113038711D01*
X116840000Y-110490000D02*
X116840000Y-112733912D01*
X111760000Y-123190000D02*
X111760000Y-120954813D01*
X111760000Y-120954813D02*
X112064813Y-120650000D01*
X111760000Y-122515319D02*
X111760000Y-123190000D01*
X111760000Y-122555000D02*
X111760000Y-123190000D01*
X116840000Y-105410000D02*
X116840000Y-110490000D01*
X119380000Y-110490000D02*
X119380000Y-113030000D01*
X109220000Y-123190000D02*
X109220000Y-120650000D01*
X119380000Y-105410000D02*
X119380000Y-110490000D01*
X63500000Y-105410000D02*
X63500000Y-110490000D01*
X66040000Y-105410000D02*
X66040000Y-110490000D01*
X68580000Y-105410000D02*
X68580000Y-110490000D01*
X76200000Y-105410000D02*
X76200000Y-110490000D01*
X78740000Y-105410000D02*
X78740000Y-110490000D01*
X81280000Y-105410000D02*
X81280000Y-110490000D01*
X83820000Y-105410000D02*
X83820000Y-110490000D01*
X86360000Y-105410000D02*
X86360000Y-110490000D01*
X88900000Y-105410000D02*
X88900000Y-110490000D01*
X91440000Y-105410000D02*
X91440000Y-110490000D01*
X93980000Y-105410000D02*
X93980000Y-110490000D01*
X99060000Y-105410000D02*
X99060000Y-110490000D01*
X101600000Y-105410000D02*
X101600000Y-110490000D01*
X104140000Y-105410000D02*
X104140000Y-110490000D01*
X106680000Y-105410000D02*
X106680000Y-110490000D01*
X109220000Y-105410000D02*
X109220000Y-110490000D01*
X111760000Y-105410000D02*
X111760000Y-110490000D01*
X114300000Y-105410000D02*
X114300000Y-110490000D01*
X63500000Y-85090000D02*
X63500000Y-90170000D01*
X68580000Y-85090000D02*
X68580000Y-90170000D01*
X71120000Y-85090000D02*
X71120000Y-90170000D01*
X73660000Y-85090000D02*
X73660000Y-90170000D01*
X76200000Y-85090000D02*
X76200000Y-90170000D01*
X83820000Y-85090000D02*
X83820000Y-90170000D01*
X86360000Y-90170000D02*
X86360000Y-85090000D01*
X88900000Y-85090000D02*
X88900000Y-90170000D01*
X91440000Y-90170000D02*
X91440000Y-85090000D01*
X101600000Y-90170000D02*
X101600000Y-85090000D01*
X104140000Y-85090000D02*
X104140000Y-90170000D01*
X106680000Y-90170000D02*
X106680000Y-85090000D01*
X109220000Y-85090000D02*
X109220000Y-90170000D01*
X111760000Y-81280000D02*
X111760000Y-85090000D01*
X111760000Y-92710000D02*
X111760000Y-90170000D01*
X111760000Y-85090000D02*
X111760000Y-90170000D01*
X114300000Y-90170000D02*
X114300000Y-85090000D01*
X116840000Y-85090000D02*
X116840000Y-90170000D01*
X119380000Y-90170000D02*
X119380000Y-85090000D01*
X73660000Y-105410000D02*
X73660000Y-110490000D01*
X71120000Y-105410000D02*
X71120000Y-110490000D01*
X93980000Y-76200000D02*
X88900002Y-76200000D01*
X93980000Y-73025000D02*
X93980000Y-76160000D01*
X94020000Y-76160000D02*
X93980000Y-76200000D01*
X60960000Y-85090000D02*
X60960000Y-82550000D01*
X93980000Y-70485000D02*
X93980000Y-72985000D01*
X93980000Y-72985000D02*
X94020000Y-73025000D01*
X55245000Y-85090000D02*
X60960000Y-85090000D01*
X94051238Y-73056238D02*
X94020000Y-73025000D01*
X94020000Y-73025000D02*
X94054589Y-73059589D01*
X94020000Y-70525000D02*
X93980000Y-70485000D01*
X60960000Y-85090000D02*
X60960000Y-90170000D01*
X91440000Y-81661000D02*
X93980000Y-84201000D01*
X93980000Y-84201000D02*
X93980000Y-85090000D01*
X91440000Y-70485000D02*
X91440000Y-73025000D01*
X93980000Y-85090000D02*
X93980000Y-90170000D01*
X99060000Y-70485000D02*
X99060000Y-85090000D01*
X99060000Y-85090000D02*
X99060000Y-90170000D01*
X73660000Y-70485000D02*
X73660000Y-76200000D01*
X121920000Y-60960000D02*
X121920000Y-63500000D01*
X121920000Y-58420000D02*
X121920000Y-60960000D01*
X119920000Y-60960000D02*
X119920000Y-58420000D01*
X119920000Y-63500000D02*
X119920000Y-60960000D01*
X117920000Y-60960000D02*
X117920000Y-63500000D01*
X117920000Y-58420000D02*
X117920000Y-60960000D01*
X115920000Y-60960000D02*
X115920000Y-58420000D01*
X115920000Y-63500000D02*
X115920000Y-60960000D01*
D30*
G36*
X121412530Y-52731055D02*
X121411472Y-53943625D01*
X121874525Y-55064298D01*
X122731192Y-55922462D01*
X123851055Y-56387470D01*
X125063625Y-56388528D01*
X125877320Y-56052316D01*
X125877320Y-121748197D01*
X125068945Y-121412530D01*
X123856375Y-121411472D01*
X122735702Y-121874525D01*
X121877538Y-122731192D01*
X121412530Y-123851055D01*
X121411472Y-125063625D01*
X121747684Y-125877320D01*
X99797942Y-125877320D01*
X100137631Y-125537631D01*
X100467992Y-125043210D01*
X100584000Y-124460000D01*
X100584000Y-122424262D01*
X102427369Y-124267631D01*
X102584741Y-124372784D01*
X102810922Y-124711287D01*
X103420708Y-125118733D01*
X104140000Y-125261809D01*
X104859292Y-125118733D01*
X105469078Y-124711287D01*
X105876524Y-124101501D01*
X106019600Y-123382209D01*
X106019600Y-122997791D01*
X105876524Y-122278499D01*
X105469078Y-121668713D01*
X104859292Y-121261267D01*
X104140000Y-121118191D01*
X103679960Y-121209698D01*
X103522678Y-121052416D01*
X107187648Y-121052416D01*
X107496350Y-121799532D01*
X107680351Y-121983854D01*
X107483476Y-122278499D01*
X107340400Y-122997791D01*
X107340400Y-123382209D01*
X107483476Y-124101501D01*
X107890922Y-124711287D01*
X108500708Y-125118733D01*
X109220000Y-125261809D01*
X109939292Y-125118733D01*
X110490000Y-124750762D01*
X111040708Y-125118733D01*
X111760000Y-125261809D01*
X112479292Y-125118733D01*
X113030000Y-124750762D01*
X113580708Y-125118733D01*
X114300000Y-125261809D01*
X115019292Y-125118733D01*
X115268678Y-124952099D01*
X115573375Y-125160289D01*
X115976400Y-125241904D01*
X117703600Y-125241904D01*
X118080107Y-125171059D01*
X118425906Y-124948544D01*
X118657889Y-124609025D01*
X118739504Y-124206000D01*
X118739504Y-122174000D01*
X118668659Y-121797493D01*
X118446144Y-121451694D01*
X118106625Y-121219711D01*
X117703600Y-121138096D01*
X115976400Y-121138096D01*
X115599893Y-121208941D01*
X115264233Y-121424932D01*
X115019292Y-121261267D01*
X114300000Y-121118191D01*
X114049968Y-121167925D01*
X114096459Y-121055963D01*
X114097165Y-120247584D01*
X113788463Y-119500468D01*
X113217351Y-118928359D01*
X112470776Y-118618354D01*
X111662397Y-118617648D01*
X110915281Y-118926350D01*
X110642432Y-119198724D01*
X110372538Y-118928359D01*
X109625963Y-118618354D01*
X108817584Y-118617648D01*
X108070468Y-118926350D01*
X107498359Y-119497462D01*
X107188354Y-120244037D01*
X107187648Y-121052416D01*
X103522678Y-121052416D01*
X101075613Y-118605351D01*
X101075839Y-118345853D01*
X100769646Y-117604808D01*
X100584000Y-117418838D01*
X100584000Y-116896507D01*
X100767653Y-116713174D01*
X101075140Y-115972665D01*
X101075839Y-115170853D01*
X100769646Y-114429808D01*
X100203174Y-113862347D01*
X99462665Y-113554860D01*
X99199892Y-113554631D01*
X98165904Y-112520642D01*
X98165904Y-112380000D01*
X98149102Y-112290706D01*
X98340708Y-112418733D01*
X99060000Y-112561809D01*
X99779292Y-112418733D01*
X100330000Y-112050762D01*
X100880708Y-112418733D01*
X101600000Y-112561809D01*
X102319292Y-112418733D01*
X102870000Y-112050762D01*
X103420708Y-112418733D01*
X104140000Y-112561809D01*
X104859292Y-112418733D01*
X105410000Y-112050762D01*
X105960708Y-112418733D01*
X106680000Y-112561809D01*
X107399292Y-112418733D01*
X107950000Y-112050762D01*
X108500708Y-112418733D01*
X109220000Y-112561809D01*
X109939292Y-112418733D01*
X110490000Y-112050762D01*
X111040708Y-112418733D01*
X111760000Y-112561809D01*
X112479292Y-112418733D01*
X113030000Y-112050762D01*
X113580708Y-112418733D01*
X114300000Y-112561809D01*
X114553990Y-112511287D01*
X114503555Y-112632748D01*
X114502849Y-113441127D01*
X114811551Y-114188243D01*
X115382663Y-114760352D01*
X116129238Y-115070357D01*
X116937617Y-115071063D01*
X117684733Y-114762361D01*
X117961931Y-114485646D01*
X118227462Y-114751641D01*
X118974037Y-115061646D01*
X119782416Y-115062352D01*
X120529532Y-114753650D01*
X121101641Y-114182538D01*
X121411646Y-113435963D01*
X121412352Y-112627584D01*
X121103650Y-111880468D01*
X120919649Y-111696146D01*
X121116524Y-111401501D01*
X121259600Y-110682209D01*
X121259600Y-110297791D01*
X121116524Y-109578499D01*
X120904000Y-109260434D01*
X120904000Y-106454632D01*
X120918633Y-106440025D01*
X121195685Y-105772810D01*
X121196315Y-105050360D01*
X120920428Y-104382662D01*
X120410025Y-103871367D01*
X119742810Y-103594315D01*
X119020360Y-103593685D01*
X118352662Y-103869572D01*
X118110025Y-104111786D01*
X117870025Y-103871367D01*
X117202810Y-103594315D01*
X116480360Y-103593685D01*
X115812662Y-103869572D01*
X115570025Y-104111786D01*
X115330025Y-103871367D01*
X114662810Y-103594315D01*
X113940360Y-103593685D01*
X113272662Y-103869572D01*
X113030025Y-104111786D01*
X112790025Y-103871367D01*
X112122810Y-103594315D01*
X111400360Y-103593685D01*
X110732662Y-103869572D01*
X110490025Y-104111786D01*
X110250025Y-103871367D01*
X109582810Y-103594315D01*
X108860360Y-103593685D01*
X108239276Y-103850312D01*
X108495685Y-103232810D01*
X108496315Y-102510360D01*
X108225113Y-101854000D01*
X110433493Y-101854000D01*
X110616826Y-102037653D01*
X111357335Y-102345140D01*
X112159147Y-102345839D01*
X112900192Y-102039646D01*
X113467653Y-101473174D01*
X113775140Y-100732665D01*
X113775839Y-99930853D01*
X113469646Y-99189808D01*
X112903174Y-98622347D01*
X112162665Y-98314860D01*
X111360853Y-98314161D01*
X110619808Y-98620354D01*
X110433838Y-98806000D01*
X107724632Y-98806000D01*
X107710025Y-98791367D01*
X107042810Y-98514315D01*
X106320360Y-98513685D01*
X105652662Y-98789572D01*
X105636205Y-98806000D01*
X100468630Y-98806000D01*
X99885420Y-98922008D01*
X99489091Y-99186826D01*
X99390999Y-99252369D01*
X95442369Y-103200999D01*
X95112008Y-103695420D01*
X95065880Y-103927320D01*
X95010025Y-103871367D01*
X94342810Y-103594315D01*
X93620360Y-103593685D01*
X92952662Y-103869572D01*
X92710025Y-104111786D01*
X92470025Y-103871367D01*
X91802810Y-103594315D01*
X91080360Y-103593685D01*
X90412662Y-103869572D01*
X90170025Y-104111786D01*
X89930025Y-103871367D01*
X89262810Y-103594315D01*
X88540360Y-103593685D01*
X87872662Y-103869572D01*
X87630025Y-104111786D01*
X87390025Y-103871367D01*
X86722810Y-103594315D01*
X86000360Y-103593685D01*
X85332662Y-103869572D01*
X85090025Y-104111786D01*
X84850025Y-103871367D01*
X84182810Y-103594315D01*
X83460360Y-103593685D01*
X82792662Y-103869572D01*
X82550025Y-104111786D01*
X82310025Y-103871367D01*
X81642810Y-103594315D01*
X80920360Y-103593685D01*
X80252662Y-103869572D01*
X80010025Y-104111786D01*
X79770025Y-103871367D01*
X79102810Y-103594315D01*
X78380360Y-103593685D01*
X77712662Y-103869572D01*
X77470025Y-104111786D01*
X77230025Y-103871367D01*
X76562810Y-103594315D01*
X75840360Y-103593685D01*
X75172662Y-103869572D01*
X74930025Y-104111786D01*
X74690025Y-103871367D01*
X74022810Y-103594315D01*
X73300360Y-103593685D01*
X72632662Y-103869572D01*
X72390025Y-104111786D01*
X72150025Y-103871367D01*
X71482810Y-103594315D01*
X70760360Y-103593685D01*
X70092662Y-103869572D01*
X69850025Y-104111786D01*
X69610025Y-103871367D01*
X68942810Y-103594315D01*
X68220360Y-103593685D01*
X67552662Y-103869572D01*
X67310025Y-104111786D01*
X67070025Y-103871367D01*
X66402810Y-103594315D01*
X65680360Y-103593685D01*
X65012662Y-103869572D01*
X64770025Y-104111786D01*
X64530025Y-103871367D01*
X63862810Y-103594315D01*
X63140360Y-103593685D01*
X62472662Y-103869572D01*
X61961367Y-104379975D01*
X61684315Y-105047190D01*
X61683685Y-105769640D01*
X61959572Y-106437338D01*
X61976000Y-106453795D01*
X61976000Y-109260434D01*
X61763476Y-109578499D01*
X61620400Y-110297791D01*
X61620400Y-110682209D01*
X61763476Y-111401501D01*
X62170922Y-112011287D01*
X62780708Y-112418733D01*
X63500000Y-112561809D01*
X64219292Y-112418733D01*
X64770000Y-112050762D01*
X65320708Y-112418733D01*
X66040000Y-112561809D01*
X66759292Y-112418733D01*
X67310000Y-112050762D01*
X67860708Y-112418733D01*
X68580000Y-112561809D01*
X69299292Y-112418733D01*
X69850000Y-112050762D01*
X70400708Y-112418733D01*
X71120000Y-112561809D01*
X71839292Y-112418733D01*
X72390000Y-112050762D01*
X72940708Y-112418733D01*
X73660000Y-112561809D01*
X74379292Y-112418733D01*
X74930000Y-112050762D01*
X75480708Y-112418733D01*
X76200000Y-112561809D01*
X76919292Y-112418733D01*
X77470000Y-112050762D01*
X78020708Y-112418733D01*
X78740000Y-112561809D01*
X79459292Y-112418733D01*
X80010000Y-112050762D01*
X80560708Y-112418733D01*
X81280000Y-112561809D01*
X81999292Y-112418733D01*
X82550000Y-112050762D01*
X83100708Y-112418733D01*
X83820000Y-112561809D01*
X84539292Y-112418733D01*
X85090000Y-112050762D01*
X85640708Y-112418733D01*
X86360000Y-112561809D01*
X87079292Y-112418733D01*
X87630000Y-112050762D01*
X88180708Y-112418733D01*
X88900000Y-112561809D01*
X89619292Y-112418733D01*
X90170000Y-112050762D01*
X90720708Y-112418733D01*
X91440000Y-112561809D01*
X92159292Y-112418733D01*
X92710000Y-112050762D01*
X93260708Y-112418733D01*
X93980000Y-112561809D01*
X94699292Y-112418733D01*
X94799860Y-112351535D01*
X94794096Y-112380000D01*
X94794096Y-113680000D01*
X94864941Y-114056507D01*
X95087456Y-114402306D01*
X95426975Y-114634289D01*
X95830000Y-114715904D01*
X96050642Y-114715904D01*
X97044387Y-115709649D01*
X97044161Y-115969147D01*
X97350354Y-116710192D01*
X97536000Y-116896162D01*
X97536000Y-117418493D01*
X97352347Y-117601826D01*
X97044860Y-118342335D01*
X97044161Y-119144147D01*
X97350354Y-119885192D01*
X97536000Y-120071162D01*
X97536000Y-121168958D01*
X97383600Y-121138096D01*
X95656400Y-121138096D01*
X95504000Y-121166772D01*
X95504000Y-117475000D01*
X95453476Y-117221000D01*
X95387993Y-116891791D01*
X95057631Y-116397369D01*
X93191595Y-114531333D01*
X93149646Y-114429808D01*
X92583174Y-113862347D01*
X91842665Y-113554860D01*
X91040853Y-113554161D01*
X90299808Y-113860354D01*
X90113838Y-114046000D01*
X88979835Y-114046000D01*
X88782538Y-113848359D01*
X88035963Y-113538354D01*
X87227584Y-113537648D01*
X86480468Y-113846350D01*
X85908359Y-114417462D01*
X85598354Y-115164037D01*
X85597648Y-115972416D01*
X85906350Y-116719532D01*
X86343817Y-117157763D01*
X85908359Y-117592462D01*
X85598354Y-118339037D01*
X85597648Y-119147416D01*
X85906350Y-119894532D01*
X86477462Y-120466641D01*
X87224037Y-120776646D01*
X88032416Y-120777352D01*
X88779532Y-120468650D01*
X88979531Y-120269000D01*
X89916000Y-120269000D01*
X89916000Y-121459521D01*
X89619292Y-121261267D01*
X88900000Y-121118191D01*
X88180708Y-121261267D01*
X87630000Y-121629238D01*
X87079292Y-121261267D01*
X86360000Y-121118191D01*
X85640708Y-121261267D01*
X85090000Y-121629238D01*
X84539292Y-121261267D01*
X83820000Y-121118191D01*
X83100708Y-121261267D01*
X82490922Y-121668713D01*
X82083476Y-122278499D01*
X81940400Y-122997791D01*
X81940400Y-123382209D01*
X82073482Y-124051256D01*
X81918738Y-124206000D01*
X80406700Y-124206000D01*
X80476524Y-124101501D01*
X80619600Y-123382209D01*
X80619600Y-122997791D01*
X80476524Y-122278499D01*
X80069078Y-121668713D01*
X79459292Y-121261267D01*
X78740000Y-121118191D01*
X78020708Y-121261267D01*
X77410922Y-121668713D01*
X77003476Y-122278499D01*
X76860400Y-122997791D01*
X76860400Y-123382209D01*
X77003476Y-124101501D01*
X77073300Y-124206000D01*
X73654504Y-124206000D01*
X73654504Y-122174000D01*
X73583659Y-121797493D01*
X73361144Y-121451694D01*
X73021625Y-121219711D01*
X72618600Y-121138096D01*
X70891400Y-121138096D01*
X70514893Y-121208941D01*
X70179233Y-121424932D01*
X69934292Y-121261267D01*
X69215000Y-121118191D01*
X68495708Y-121261267D01*
X67885922Y-121668713D01*
X67478476Y-122278499D01*
X67335400Y-122997791D01*
X67335400Y-123382209D01*
X67478476Y-124101501D01*
X67691000Y-124419566D01*
X67691000Y-124587000D01*
X67807008Y-125170210D01*
X68086555Y-125588582D01*
X68137369Y-125664631D01*
X68350058Y-125877320D01*
X64304564Y-125877320D01*
X64857041Y-125324843D01*
X64991195Y-125124067D01*
X65212631Y-124902631D01*
X65240796Y-124860480D01*
X65464078Y-124711287D01*
X65871524Y-124101501D01*
X66014600Y-123382209D01*
X66014600Y-122997791D01*
X65871524Y-122278499D01*
X65464078Y-121668713D01*
X64854292Y-121261267D01*
X64135000Y-121118191D01*
X63415708Y-121261267D01*
X63119000Y-121459521D01*
X63119000Y-116919835D01*
X63316641Y-116722538D01*
X63626646Y-115975963D01*
X63627352Y-115167584D01*
X63318650Y-114420468D01*
X62747538Y-113848359D01*
X62000963Y-113538354D01*
X61718369Y-113538107D01*
X60299599Y-112119337D01*
X60299599Y-108494084D01*
X60318650Y-108398309D01*
X60318649Y-108398304D01*
X60318649Y-104523613D01*
X61591262Y-103251000D01*
X71247000Y-103251000D01*
X71830210Y-103134992D01*
X72324631Y-102804631D01*
X82357631Y-92771631D01*
X82687993Y-92277209D01*
X82800242Y-91712896D01*
X83457190Y-91985685D01*
X84179640Y-91986315D01*
X84847338Y-91710428D01*
X85089975Y-91468214D01*
X85329975Y-91708633D01*
X85997190Y-91985685D01*
X86719640Y-91986315D01*
X87387338Y-91710428D01*
X87629975Y-91468214D01*
X87869975Y-91708633D01*
X88537190Y-91985685D01*
X89259640Y-91986315D01*
X89927338Y-91710428D01*
X90169975Y-91468214D01*
X90409975Y-91708633D01*
X91077190Y-91985685D01*
X91799640Y-91986315D01*
X92467338Y-91710428D01*
X92709975Y-91468214D01*
X92949975Y-91708633D01*
X93617190Y-91985685D01*
X94339640Y-91986315D01*
X95007338Y-91710428D01*
X95518633Y-91200025D01*
X95795685Y-90532810D01*
X95796315Y-89810360D01*
X95520428Y-89142662D01*
X95504000Y-89126205D01*
X95504000Y-86319566D01*
X95716524Y-86001501D01*
X95859600Y-85282209D01*
X95859600Y-84897791D01*
X97180400Y-84897791D01*
X97180400Y-85282209D01*
X97323476Y-86001501D01*
X97536000Y-86319566D01*
X97536000Y-89125368D01*
X97521367Y-89139975D01*
X97244315Y-89807190D01*
X97243685Y-90529640D01*
X97519572Y-91197338D01*
X98029975Y-91708633D01*
X98697190Y-91985685D01*
X99419640Y-91986315D01*
X100087338Y-91710428D01*
X100329975Y-91468214D01*
X100569975Y-91708633D01*
X101237190Y-91985685D01*
X101959640Y-91986315D01*
X102627338Y-91710428D01*
X102869975Y-91468214D01*
X103109975Y-91708633D01*
X103777190Y-91985685D01*
X104499640Y-91986315D01*
X105120724Y-91729688D01*
X104864315Y-92347190D01*
X104863685Y-93069640D01*
X105139572Y-93737338D01*
X105381786Y-93979975D01*
X105141367Y-94219975D01*
X104864315Y-94887190D01*
X104863685Y-95609640D01*
X105139572Y-96277338D01*
X105649975Y-96788633D01*
X106317190Y-97065685D01*
X107039640Y-97066315D01*
X107707338Y-96790428D01*
X108218633Y-96280025D01*
X108495685Y-95612810D01*
X108496315Y-94890360D01*
X108220428Y-94222662D01*
X107978214Y-93980025D01*
X108218633Y-93740025D01*
X108495685Y-93072810D01*
X108496315Y-92350360D01*
X108239688Y-91729276D01*
X108857190Y-91985685D01*
X109579640Y-91986315D01*
X109939985Y-91837424D01*
X109744860Y-92307335D01*
X109744161Y-93109147D01*
X110050354Y-93850192D01*
X110616826Y-94417653D01*
X111357335Y-94725140D01*
X112159147Y-94725839D01*
X112900192Y-94419646D01*
X113467653Y-93853174D01*
X113775140Y-93112665D01*
X113775839Y-92310853D01*
X113580240Y-91837466D01*
X113937190Y-91985685D01*
X114659640Y-91986315D01*
X115327338Y-91710428D01*
X115569975Y-91468214D01*
X115809975Y-91708633D01*
X116477190Y-91985685D01*
X117199640Y-91986315D01*
X117867338Y-91710428D01*
X118109975Y-91468214D01*
X118349975Y-91708633D01*
X119017190Y-91985685D01*
X119739640Y-91986315D01*
X120407338Y-91710428D01*
X120918633Y-91200025D01*
X121195685Y-90532810D01*
X121196315Y-89810360D01*
X120920428Y-89142662D01*
X120904000Y-89126205D01*
X120904000Y-86319566D01*
X121116524Y-86001501D01*
X121259600Y-85282209D01*
X121259600Y-84897791D01*
X121116524Y-84178499D01*
X120709078Y-83568713D01*
X120099292Y-83161267D01*
X119380000Y-83018191D01*
X118660708Y-83161267D01*
X118110000Y-83529238D01*
X117559292Y-83161267D01*
X116840000Y-83018191D01*
X116120708Y-83161267D01*
X115570000Y-83529238D01*
X115019292Y-83161267D01*
X114300000Y-83018191D01*
X113580708Y-83161267D01*
X113284000Y-83359521D01*
X113284000Y-83137355D01*
X113436507Y-83108659D01*
X113782306Y-82886144D01*
X114014289Y-82546625D01*
X114095904Y-82143600D01*
X114095904Y-80416400D01*
X114025059Y-80039893D01*
X113802544Y-79694094D01*
X113463025Y-79462111D01*
X113060000Y-79380496D01*
X110460000Y-79380496D01*
X110083493Y-79451341D01*
X109737694Y-79673856D01*
X109505711Y-80013375D01*
X109424096Y-80416400D01*
X109424096Y-82143600D01*
X109494941Y-82520107D01*
X109717456Y-82865906D01*
X110056975Y-83097889D01*
X110236000Y-83134143D01*
X110236000Y-83359521D01*
X109939292Y-83161267D01*
X109220000Y-83018191D01*
X108500708Y-83161267D01*
X107950000Y-83529238D01*
X107399292Y-83161267D01*
X106680000Y-83018191D01*
X105960708Y-83161267D01*
X105410000Y-83529238D01*
X104859292Y-83161267D01*
X104140000Y-83018191D01*
X103420708Y-83161267D01*
X102870000Y-83529238D01*
X102319292Y-83161267D01*
X101600000Y-83018191D01*
X100880708Y-83161267D01*
X100584000Y-83359521D01*
X100584000Y-71451172D01*
X100837691Y-70840218D01*
X100838308Y-70132886D01*
X100568194Y-69479160D01*
X100068471Y-68978564D01*
X99415218Y-68707309D01*
X98707886Y-68706692D01*
X98054160Y-68976806D01*
X97553564Y-69476529D01*
X97282309Y-70129782D01*
X97281692Y-70837114D01*
X97536000Y-71452587D01*
X97536000Y-83860434D01*
X97323476Y-84178499D01*
X97180400Y-84897791D01*
X95859600Y-84897791D01*
X95716524Y-84178499D01*
X95407542Y-83716075D01*
X95387992Y-83617790D01*
X95057631Y-83123369D01*
X95057628Y-83123367D01*
X93472108Y-81537846D01*
X93472352Y-81258584D01*
X93163650Y-80511468D01*
X92592538Y-79939359D01*
X91845963Y-79629354D01*
X91037584Y-79628648D01*
X90290468Y-79937350D01*
X89718359Y-80508462D01*
X89408354Y-81255037D01*
X89407648Y-82063416D01*
X89716350Y-82810532D01*
X90287462Y-83382641D01*
X90350330Y-83408746D01*
X90170000Y-83529238D01*
X89619292Y-83161267D01*
X88900000Y-83018191D01*
X88180708Y-83161267D01*
X87630000Y-83529238D01*
X87079292Y-83161267D01*
X86360000Y-83018191D01*
X85640708Y-83161267D01*
X85090000Y-83529238D01*
X84539292Y-83161267D01*
X83820000Y-83018191D01*
X83100708Y-83161267D01*
X82550000Y-83529238D01*
X81999292Y-83161267D01*
X81280000Y-83018191D01*
X80560708Y-83161267D01*
X80010000Y-83529238D01*
X79459292Y-83161267D01*
X78740000Y-83018191D01*
X78020708Y-83161267D01*
X77470000Y-83529238D01*
X76919292Y-83161267D01*
X76200000Y-83018191D01*
X75480708Y-83161267D01*
X74930000Y-83529238D01*
X74379292Y-83161267D01*
X73660000Y-83018191D01*
X72940708Y-83161267D01*
X72390000Y-83529238D01*
X71839292Y-83161267D01*
X71120000Y-83018191D01*
X70400708Y-83161267D01*
X69850000Y-83529238D01*
X69299292Y-83161267D01*
X68580000Y-83018191D01*
X67860708Y-83161267D01*
X67310000Y-83529238D01*
X66759292Y-83161267D01*
X66040000Y-83018191D01*
X65320708Y-83161267D01*
X64770000Y-83529238D01*
X64219292Y-83161267D01*
X63500000Y-83018191D01*
X62917712Y-83134015D01*
X62991646Y-82955963D01*
X62992352Y-82147584D01*
X62683650Y-81400468D01*
X62112538Y-80828359D01*
X61365963Y-80518354D01*
X60557584Y-80517648D01*
X59810468Y-80826350D01*
X59238359Y-81397462D01*
X58928354Y-82144037D01*
X58927648Y-82952416D01*
X59181176Y-83566000D01*
X57327379Y-83566000D01*
X57287544Y-83504094D01*
X56948025Y-83272111D01*
X56545000Y-83190496D01*
X53945000Y-83190496D01*
X53568493Y-83261341D01*
X53222694Y-83483856D01*
X52990711Y-83823375D01*
X52909096Y-84226400D01*
X52909096Y-85953600D01*
X52979941Y-86330107D01*
X53202456Y-86675906D01*
X53541975Y-86907889D01*
X53945000Y-86989504D01*
X56545000Y-86989504D01*
X56921507Y-86918659D01*
X57267306Y-86696144D01*
X57323432Y-86614000D01*
X59215954Y-86614000D01*
X59353856Y-86828306D01*
X59436000Y-86884432D01*
X59436000Y-89125368D01*
X59421367Y-89139975D01*
X59144315Y-89807190D01*
X59143685Y-90529640D01*
X59419572Y-91197338D01*
X59929975Y-91708633D01*
X60597190Y-91985685D01*
X61319640Y-91986315D01*
X61940724Y-91729688D01*
X61684315Y-92347190D01*
X61683685Y-93069640D01*
X61959572Y-93737338D01*
X62469975Y-94248633D01*
X63137190Y-94525685D01*
X63859640Y-94526315D01*
X64527338Y-94250428D01*
X65038633Y-93740025D01*
X65315685Y-93072810D01*
X65316315Y-92350360D01*
X65059688Y-91729276D01*
X65677190Y-91985685D01*
X66399640Y-91986315D01*
X67020724Y-91729688D01*
X66764315Y-92347190D01*
X66763685Y-93069640D01*
X67039572Y-93737338D01*
X67549975Y-94248633D01*
X68217190Y-94525685D01*
X68939640Y-94526315D01*
X69607338Y-94250428D01*
X69849975Y-94008214D01*
X70089975Y-94248633D01*
X70757190Y-94525685D01*
X71479640Y-94526315D01*
X72147338Y-94250428D01*
X72389975Y-94008214D01*
X72629975Y-94248633D01*
X73297190Y-94525685D01*
X73343750Y-94525726D01*
X69495287Y-98374189D01*
X60075482Y-98374189D01*
X59492272Y-98490197D01*
X59019639Y-98806000D01*
X58997851Y-98820558D01*
X55691370Y-102127039D01*
X55361009Y-102621460D01*
X55245001Y-103204670D01*
X55245001Y-116459001D01*
X55361009Y-117042211D01*
X55480472Y-117221000D01*
X55691370Y-117536632D01*
X57022892Y-118868154D01*
X57022648Y-119147416D01*
X57331350Y-119894532D01*
X57531000Y-120094531D01*
X57531000Y-124460000D01*
X57647008Y-125043210D01*
X57977369Y-125537631D01*
X58317058Y-125877320D01*
X56051803Y-125877320D01*
X56387470Y-125068945D01*
X56388528Y-123856375D01*
X55925475Y-122735702D01*
X55068808Y-121877538D01*
X53948945Y-121412530D01*
X52736375Y-121411472D01*
X51922680Y-121747684D01*
X51922680Y-76648758D01*
X71393607Y-76648758D01*
X71737858Y-77481909D01*
X72374738Y-78119902D01*
X73207287Y-78465606D01*
X74108758Y-78466393D01*
X74941909Y-78122142D01*
X75579902Y-77485262D01*
X75925606Y-76652713D01*
X75925649Y-76602416D01*
X86867650Y-76602416D01*
X87176352Y-77349532D01*
X87747464Y-77921641D01*
X88494039Y-78231646D01*
X89302418Y-78232352D01*
X90049534Y-77923650D01*
X90249533Y-77724000D01*
X92809468Y-77724000D01*
X92926975Y-77804289D01*
X93330000Y-77885904D01*
X94630000Y-77885904D01*
X95006507Y-77815059D01*
X95352306Y-77592544D01*
X95584289Y-77253025D01*
X95665904Y-76850000D01*
X95665904Y-75550000D01*
X95595059Y-75173493D01*
X95504000Y-75031983D01*
X95504000Y-74254074D01*
X95624289Y-74078025D01*
X95705904Y-73675000D01*
X95705904Y-72375000D01*
X95635059Y-71998493D01*
X95504000Y-71794821D01*
X95504000Y-71451172D01*
X95757691Y-70840218D01*
X95758308Y-70132886D01*
X95488194Y-69479160D01*
X94988471Y-68978564D01*
X94335218Y-68707309D01*
X93627886Y-68706692D01*
X92974160Y-68976806D01*
X92709978Y-69240528D01*
X92448471Y-68978564D01*
X91795218Y-68707309D01*
X91087886Y-68706692D01*
X90434160Y-68976806D01*
X89933564Y-69476529D01*
X89662309Y-70129782D01*
X89661692Y-70837114D01*
X89916000Y-71452587D01*
X89916000Y-71675165D01*
X89718359Y-71872462D01*
X89408354Y-72619037D01*
X89407648Y-73427416D01*
X89716350Y-74174532D01*
X89996360Y-74455031D01*
X89305965Y-74168354D01*
X88497586Y-74167648D01*
X87750470Y-74476350D01*
X87178361Y-75047462D01*
X86868356Y-75794037D01*
X86867650Y-76602416D01*
X75925649Y-76602416D01*
X75926393Y-75751242D01*
X75582142Y-74918091D01*
X75184000Y-74519253D01*
X75184000Y-71451172D01*
X75437691Y-70840218D01*
X75438308Y-70132886D01*
X75168194Y-69479160D01*
X74668471Y-68978564D01*
X74015218Y-68707309D01*
X73307886Y-68706692D01*
X72654160Y-68976806D01*
X72153564Y-69476529D01*
X71882309Y-70129782D01*
X71881692Y-70837114D01*
X72136000Y-71452587D01*
X72136000Y-74519527D01*
X71740098Y-74914738D01*
X71394394Y-75747287D01*
X71393607Y-76648758D01*
X51922680Y-76648758D01*
X51922680Y-58219871D01*
X114396000Y-58219871D01*
X114396000Y-63700129D01*
X114512008Y-64283339D01*
X114842369Y-64777760D01*
X115336790Y-65108121D01*
X115920000Y-65224129D01*
X116503210Y-65108121D01*
X116920000Y-64829631D01*
X117336790Y-65108121D01*
X117920000Y-65224129D01*
X118503210Y-65108121D01*
X118920000Y-64829631D01*
X119336790Y-65108121D01*
X119920000Y-65224129D01*
X120503210Y-65108121D01*
X120743253Y-64947729D01*
X121008975Y-65129289D01*
X121412000Y-65210904D01*
X122428000Y-65210904D01*
X122804507Y-65140059D01*
X123150306Y-64917544D01*
X123382289Y-64578025D01*
X123463904Y-64175000D01*
X123463904Y-62825000D01*
X123444000Y-62719220D01*
X123444000Y-61733288D01*
X123463904Y-61635000D01*
X123463904Y-60285000D01*
X123444000Y-60179220D01*
X123444000Y-59193288D01*
X123463904Y-59095000D01*
X123463904Y-57745000D01*
X123393059Y-57368493D01*
X123170544Y-57022694D01*
X122831025Y-56790711D01*
X122428000Y-56709096D01*
X121412000Y-56709096D01*
X121035493Y-56779941D01*
X120739991Y-56970091D01*
X120503210Y-56811879D01*
X119920000Y-56695871D01*
X119336790Y-56811879D01*
X118920000Y-57090369D01*
X118503210Y-56811879D01*
X117920000Y-56695871D01*
X117336790Y-56811879D01*
X116920000Y-57090369D01*
X116503210Y-56811879D01*
X115920000Y-56695871D01*
X115336790Y-56811879D01*
X114842369Y-57142240D01*
X114512008Y-57636661D01*
X114396000Y-58219871D01*
X51922680Y-58219871D01*
X51922680Y-56051803D01*
X52731055Y-56387470D01*
X53943625Y-56388528D01*
X55064298Y-55925475D01*
X55922462Y-55068808D01*
X56387470Y-53948945D01*
X56388528Y-52736375D01*
X56052316Y-51922680D01*
X121748197Y-51922680D01*
X121412530Y-52731055D01*
X121412530Y-52731055D01*
G37*
X121412530Y-52731055D02*
X121411472Y-53943625D01*
X121874525Y-55064298D01*
X122731192Y-55922462D01*
X123851055Y-56387470D01*
X125063625Y-56388528D01*
X125877320Y-56052316D01*
X125877320Y-121748197D01*
X125068945Y-121412530D01*
X123856375Y-121411472D01*
X122735702Y-121874525D01*
X121877538Y-122731192D01*
X121412530Y-123851055D01*
X121411472Y-125063625D01*
X121747684Y-125877320D01*
X99797942Y-125877320D01*
X100137631Y-125537631D01*
X100467992Y-125043210D01*
X100584000Y-124460000D01*
X100584000Y-122424262D01*
X102427369Y-124267631D01*
X102584741Y-124372784D01*
X102810922Y-124711287D01*
X103420708Y-125118733D01*
X104140000Y-125261809D01*
X104859292Y-125118733D01*
X105469078Y-124711287D01*
X105876524Y-124101501D01*
X106019600Y-123382209D01*
X106019600Y-122997791D01*
X105876524Y-122278499D01*
X105469078Y-121668713D01*
X104859292Y-121261267D01*
X104140000Y-121118191D01*
X103679960Y-121209698D01*
X103522678Y-121052416D01*
X107187648Y-121052416D01*
X107496350Y-121799532D01*
X107680351Y-121983854D01*
X107483476Y-122278499D01*
X107340400Y-122997791D01*
X107340400Y-123382209D01*
X107483476Y-124101501D01*
X107890922Y-124711287D01*
X108500708Y-125118733D01*
X109220000Y-125261809D01*
X109939292Y-125118733D01*
X110490000Y-124750762D01*
X111040708Y-125118733D01*
X111760000Y-125261809D01*
X112479292Y-125118733D01*
X113030000Y-124750762D01*
X113580708Y-125118733D01*
X114300000Y-125261809D01*
X115019292Y-125118733D01*
X115268678Y-124952099D01*
X115573375Y-125160289D01*
X115976400Y-125241904D01*
X117703600Y-125241904D01*
X118080107Y-125171059D01*
X118425906Y-124948544D01*
X118657889Y-124609025D01*
X118739504Y-124206000D01*
X118739504Y-122174000D01*
X118668659Y-121797493D01*
X118446144Y-121451694D01*
X118106625Y-121219711D01*
X117703600Y-121138096D01*
X115976400Y-121138096D01*
X115599893Y-121208941D01*
X115264233Y-121424932D01*
X115019292Y-121261267D01*
X114300000Y-121118191D01*
X114049968Y-121167925D01*
X114096459Y-121055963D01*
X114097165Y-120247584D01*
X113788463Y-119500468D01*
X113217351Y-118928359D01*
X112470776Y-118618354D01*
X111662397Y-118617648D01*
X110915281Y-118926350D01*
X110642432Y-119198724D01*
X110372538Y-118928359D01*
X109625963Y-118618354D01*
X108817584Y-118617648D01*
X108070468Y-118926350D01*
X107498359Y-119497462D01*
X107188354Y-120244037D01*
X107187648Y-121052416D01*
X103522678Y-121052416D01*
X101075613Y-118605351D01*
X101075839Y-118345853D01*
X100769646Y-117604808D01*
X100584000Y-117418838D01*
X100584000Y-116896507D01*
X100767653Y-116713174D01*
X101075140Y-115972665D01*
X101075839Y-115170853D01*
X100769646Y-114429808D01*
X100203174Y-113862347D01*
X99462665Y-113554860D01*
X99199892Y-113554631D01*
X98165904Y-112520642D01*
X98165904Y-112380000D01*
X98149102Y-112290706D01*
X98340708Y-112418733D01*
X99060000Y-112561809D01*
X99779292Y-112418733D01*
X100330000Y-112050762D01*
X100880708Y-112418733D01*
X101600000Y-112561809D01*
X102319292Y-112418733D01*
X102870000Y-112050762D01*
X103420708Y-112418733D01*
X104140000Y-112561809D01*
X104859292Y-112418733D01*
X105410000Y-112050762D01*
X105960708Y-112418733D01*
X106680000Y-112561809D01*
X107399292Y-112418733D01*
X107950000Y-112050762D01*
X108500708Y-112418733D01*
X109220000Y-112561809D01*
X109939292Y-112418733D01*
X110490000Y-112050762D01*
X111040708Y-112418733D01*
X111760000Y-112561809D01*
X112479292Y-112418733D01*
X113030000Y-112050762D01*
X113580708Y-112418733D01*
X114300000Y-112561809D01*
X114553990Y-112511287D01*
X114503555Y-112632748D01*
X114502849Y-113441127D01*
X114811551Y-114188243D01*
X115382663Y-114760352D01*
X116129238Y-115070357D01*
X116937617Y-115071063D01*
X117684733Y-114762361D01*
X117961931Y-114485646D01*
X118227462Y-114751641D01*
X118974037Y-115061646D01*
X119782416Y-115062352D01*
X120529532Y-114753650D01*
X121101641Y-114182538D01*
X121411646Y-113435963D01*
X121412352Y-112627584D01*
X121103650Y-111880468D01*
X120919649Y-111696146D01*
X121116524Y-111401501D01*
X121259600Y-110682209D01*
X121259600Y-110297791D01*
X121116524Y-109578499D01*
X120904000Y-109260434D01*
X120904000Y-106454632D01*
X120918633Y-106440025D01*
X121195685Y-105772810D01*
X121196315Y-105050360D01*
X120920428Y-104382662D01*
X120410025Y-103871367D01*
X119742810Y-103594315D01*
X119020360Y-103593685D01*
X118352662Y-103869572D01*
X118110025Y-104111786D01*
X117870025Y-103871367D01*
X117202810Y-103594315D01*
X116480360Y-103593685D01*
X115812662Y-103869572D01*
X115570025Y-104111786D01*
X115330025Y-103871367D01*
X114662810Y-103594315D01*
X113940360Y-103593685D01*
X113272662Y-103869572D01*
X113030025Y-104111786D01*
X112790025Y-103871367D01*
X112122810Y-103594315D01*
X111400360Y-103593685D01*
X110732662Y-103869572D01*
X110490025Y-104111786D01*
X110250025Y-103871367D01*
X109582810Y-103594315D01*
X108860360Y-103593685D01*
X108239276Y-103850312D01*
X108495685Y-103232810D01*
X108496315Y-102510360D01*
X108225113Y-101854000D01*
X110433493Y-101854000D01*
X110616826Y-102037653D01*
X111357335Y-102345140D01*
X112159147Y-102345839D01*
X112900192Y-102039646D01*
X113467653Y-101473174D01*
X113775140Y-100732665D01*
X113775839Y-99930853D01*
X113469646Y-99189808D01*
X112903174Y-98622347D01*
X112162665Y-98314860D01*
X111360853Y-98314161D01*
X110619808Y-98620354D01*
X110433838Y-98806000D01*
X107724632Y-98806000D01*
X107710025Y-98791367D01*
X107042810Y-98514315D01*
X106320360Y-98513685D01*
X105652662Y-98789572D01*
X105636205Y-98806000D01*
X100468630Y-98806000D01*
X99885420Y-98922008D01*
X99489091Y-99186826D01*
X99390999Y-99252369D01*
X95442369Y-103200999D01*
X95112008Y-103695420D01*
X95065880Y-103927320D01*
X95010025Y-103871367D01*
X94342810Y-103594315D01*
X93620360Y-103593685D01*
X92952662Y-103869572D01*
X92710025Y-104111786D01*
X92470025Y-103871367D01*
X91802810Y-103594315D01*
X91080360Y-103593685D01*
X90412662Y-103869572D01*
X90170025Y-104111786D01*
X89930025Y-103871367D01*
X89262810Y-103594315D01*
X88540360Y-103593685D01*
X87872662Y-103869572D01*
X87630025Y-104111786D01*
X87390025Y-103871367D01*
X86722810Y-103594315D01*
X86000360Y-103593685D01*
X85332662Y-103869572D01*
X85090025Y-104111786D01*
X84850025Y-103871367D01*
X84182810Y-103594315D01*
X83460360Y-103593685D01*
X82792662Y-103869572D01*
X82550025Y-104111786D01*
X82310025Y-103871367D01*
X81642810Y-103594315D01*
X80920360Y-103593685D01*
X80252662Y-103869572D01*
X80010025Y-104111786D01*
X79770025Y-103871367D01*
X79102810Y-103594315D01*
X78380360Y-103593685D01*
X77712662Y-103869572D01*
X77470025Y-104111786D01*
X77230025Y-103871367D01*
X76562810Y-103594315D01*
X75840360Y-103593685D01*
X75172662Y-103869572D01*
X74930025Y-104111786D01*
X74690025Y-103871367D01*
X74022810Y-103594315D01*
X73300360Y-103593685D01*
X72632662Y-103869572D01*
X72390025Y-104111786D01*
X72150025Y-103871367D01*
X71482810Y-103594315D01*
X70760360Y-103593685D01*
X70092662Y-103869572D01*
X69850025Y-104111786D01*
X69610025Y-103871367D01*
X68942810Y-103594315D01*
X68220360Y-103593685D01*
X67552662Y-103869572D01*
X67310025Y-104111786D01*
X67070025Y-103871367D01*
X66402810Y-103594315D01*
X65680360Y-103593685D01*
X65012662Y-103869572D01*
X64770025Y-104111786D01*
X64530025Y-103871367D01*
X63862810Y-103594315D01*
X63140360Y-103593685D01*
X62472662Y-103869572D01*
X61961367Y-104379975D01*
X61684315Y-105047190D01*
X61683685Y-105769640D01*
X61959572Y-106437338D01*
X61976000Y-106453795D01*
X61976000Y-109260434D01*
X61763476Y-109578499D01*
X61620400Y-110297791D01*
X61620400Y-110682209D01*
X61763476Y-111401501D01*
X62170922Y-112011287D01*
X62780708Y-112418733D01*
X63500000Y-112561809D01*
X64219292Y-112418733D01*
X64770000Y-112050762D01*
X65320708Y-112418733D01*
X66040000Y-112561809D01*
X66759292Y-112418733D01*
X67310000Y-112050762D01*
X67860708Y-112418733D01*
X68580000Y-112561809D01*
X69299292Y-112418733D01*
X69850000Y-112050762D01*
X70400708Y-112418733D01*
X71120000Y-112561809D01*
X71839292Y-112418733D01*
X72390000Y-112050762D01*
X72940708Y-112418733D01*
X73660000Y-112561809D01*
X74379292Y-112418733D01*
X74930000Y-112050762D01*
X75480708Y-112418733D01*
X76200000Y-112561809D01*
X76919292Y-112418733D01*
X77470000Y-112050762D01*
X78020708Y-112418733D01*
X78740000Y-112561809D01*
X79459292Y-112418733D01*
X80010000Y-112050762D01*
X80560708Y-112418733D01*
X81280000Y-112561809D01*
X81999292Y-112418733D01*
X82550000Y-112050762D01*
X83100708Y-112418733D01*
X83820000Y-112561809D01*
X84539292Y-112418733D01*
X85090000Y-112050762D01*
X85640708Y-112418733D01*
X86360000Y-112561809D01*
X87079292Y-112418733D01*
X87630000Y-112050762D01*
X88180708Y-112418733D01*
X88900000Y-112561809D01*
X89619292Y-112418733D01*
X90170000Y-112050762D01*
X90720708Y-112418733D01*
X91440000Y-112561809D01*
X92159292Y-112418733D01*
X92710000Y-112050762D01*
X93260708Y-112418733D01*
X93980000Y-112561809D01*
X94699292Y-112418733D01*
X94799860Y-112351535D01*
X94794096Y-112380000D01*
X94794096Y-113680000D01*
X94864941Y-114056507D01*
X95087456Y-114402306D01*
X95426975Y-114634289D01*
X95830000Y-114715904D01*
X96050642Y-114715904D01*
X97044387Y-115709649D01*
X97044161Y-115969147D01*
X97350354Y-116710192D01*
X97536000Y-116896162D01*
X97536000Y-117418493D01*
X97352347Y-117601826D01*
X97044860Y-118342335D01*
X97044161Y-119144147D01*
X97350354Y-119885192D01*
X97536000Y-120071162D01*
X97536000Y-121168958D01*
X97383600Y-121138096D01*
X95656400Y-121138096D01*
X95504000Y-121166772D01*
X95504000Y-117475000D01*
X95453476Y-117221000D01*
X95387993Y-116891791D01*
X95057631Y-116397369D01*
X93191595Y-114531333D01*
X93149646Y-114429808D01*
X92583174Y-113862347D01*
X91842665Y-113554860D01*
X91040853Y-113554161D01*
X90299808Y-113860354D01*
X90113838Y-114046000D01*
X88979835Y-114046000D01*
X88782538Y-113848359D01*
X88035963Y-113538354D01*
X87227584Y-113537648D01*
X86480468Y-113846350D01*
X85908359Y-114417462D01*
X85598354Y-115164037D01*
X85597648Y-115972416D01*
X85906350Y-116719532D01*
X86343817Y-117157763D01*
X85908359Y-117592462D01*
X85598354Y-118339037D01*
X85597648Y-119147416D01*
X85906350Y-119894532D01*
X86477462Y-120466641D01*
X87224037Y-120776646D01*
X88032416Y-120777352D01*
X88779532Y-120468650D01*
X88979531Y-120269000D01*
X89916000Y-120269000D01*
X89916000Y-121459521D01*
X89619292Y-121261267D01*
X88900000Y-121118191D01*
X88180708Y-121261267D01*
X87630000Y-121629238D01*
X87079292Y-121261267D01*
X86360000Y-121118191D01*
X85640708Y-121261267D01*
X85090000Y-121629238D01*
X84539292Y-121261267D01*
X83820000Y-121118191D01*
X83100708Y-121261267D01*
X82490922Y-121668713D01*
X82083476Y-122278499D01*
X81940400Y-122997791D01*
X81940400Y-123382209D01*
X82073482Y-124051256D01*
X81918738Y-124206000D01*
X80406700Y-124206000D01*
X80476524Y-124101501D01*
X80619600Y-123382209D01*
X80619600Y-122997791D01*
X80476524Y-122278499D01*
X80069078Y-121668713D01*
X79459292Y-121261267D01*
X78740000Y-121118191D01*
X78020708Y-121261267D01*
X77410922Y-121668713D01*
X77003476Y-122278499D01*
X76860400Y-122997791D01*
X76860400Y-123382209D01*
X77003476Y-124101501D01*
X77073300Y-124206000D01*
X73654504Y-124206000D01*
X73654504Y-122174000D01*
X73583659Y-121797493D01*
X73361144Y-121451694D01*
X73021625Y-121219711D01*
X72618600Y-121138096D01*
X70891400Y-121138096D01*
X70514893Y-121208941D01*
X70179233Y-121424932D01*
X69934292Y-121261267D01*
X69215000Y-121118191D01*
X68495708Y-121261267D01*
X67885922Y-121668713D01*
X67478476Y-122278499D01*
X67335400Y-122997791D01*
X67335400Y-123382209D01*
X67478476Y-124101501D01*
X67691000Y-124419566D01*
X67691000Y-124587000D01*
X67807008Y-125170210D01*
X68086555Y-125588582D01*
X68137369Y-125664631D01*
X68350058Y-125877320D01*
X64304564Y-125877320D01*
X64857041Y-125324843D01*
X64991195Y-125124067D01*
X65212631Y-124902631D01*
X65240796Y-124860480D01*
X65464078Y-124711287D01*
X65871524Y-124101501D01*
X66014600Y-123382209D01*
X66014600Y-122997791D01*
X65871524Y-122278499D01*
X65464078Y-121668713D01*
X64854292Y-121261267D01*
X64135000Y-121118191D01*
X63415708Y-121261267D01*
X63119000Y-121459521D01*
X63119000Y-116919835D01*
X63316641Y-116722538D01*
X63626646Y-115975963D01*
X63627352Y-115167584D01*
X63318650Y-114420468D01*
X62747538Y-113848359D01*
X62000963Y-113538354D01*
X61718369Y-113538107D01*
X60299599Y-112119337D01*
X60299599Y-108494084D01*
X60318650Y-108398309D01*
X60318649Y-108398304D01*
X60318649Y-104523613D01*
X61591262Y-103251000D01*
X71247000Y-103251000D01*
X71830210Y-103134992D01*
X72324631Y-102804631D01*
X82357631Y-92771631D01*
X82687993Y-92277209D01*
X82800242Y-91712896D01*
X83457190Y-91985685D01*
X84179640Y-91986315D01*
X84847338Y-91710428D01*
X85089975Y-91468214D01*
X85329975Y-91708633D01*
X85997190Y-91985685D01*
X86719640Y-91986315D01*
X87387338Y-91710428D01*
X87629975Y-91468214D01*
X87869975Y-91708633D01*
X88537190Y-91985685D01*
X89259640Y-91986315D01*
X89927338Y-91710428D01*
X90169975Y-91468214D01*
X90409975Y-91708633D01*
X91077190Y-91985685D01*
X91799640Y-91986315D01*
X92467338Y-91710428D01*
X92709975Y-91468214D01*
X92949975Y-91708633D01*
X93617190Y-91985685D01*
X94339640Y-91986315D01*
X95007338Y-91710428D01*
X95518633Y-91200025D01*
X95795685Y-90532810D01*
X95796315Y-89810360D01*
X95520428Y-89142662D01*
X95504000Y-89126205D01*
X95504000Y-86319566D01*
X95716524Y-86001501D01*
X95859600Y-85282209D01*
X95859600Y-84897791D01*
X97180400Y-84897791D01*
X97180400Y-85282209D01*
X97323476Y-86001501D01*
X97536000Y-86319566D01*
X97536000Y-89125368D01*
X97521367Y-89139975D01*
X97244315Y-89807190D01*
X97243685Y-90529640D01*
X97519572Y-91197338D01*
X98029975Y-91708633D01*
X98697190Y-91985685D01*
X99419640Y-91986315D01*
X100087338Y-91710428D01*
X100329975Y-91468214D01*
X100569975Y-91708633D01*
X101237190Y-91985685D01*
X101959640Y-91986315D01*
X102627338Y-91710428D01*
X102869975Y-91468214D01*
X103109975Y-91708633D01*
X103777190Y-91985685D01*
X104499640Y-91986315D01*
X105120724Y-91729688D01*
X104864315Y-92347190D01*
X104863685Y-93069640D01*
X105139572Y-93737338D01*
X105381786Y-93979975D01*
X105141367Y-94219975D01*
X104864315Y-94887190D01*
X104863685Y-95609640D01*
X105139572Y-96277338D01*
X105649975Y-96788633D01*
X106317190Y-97065685D01*
X107039640Y-97066315D01*
X107707338Y-96790428D01*
X108218633Y-96280025D01*
X108495685Y-95612810D01*
X108496315Y-94890360D01*
X108220428Y-94222662D01*
X107978214Y-93980025D01*
X108218633Y-93740025D01*
X108495685Y-93072810D01*
X108496315Y-92350360D01*
X108239688Y-91729276D01*
X108857190Y-91985685D01*
X109579640Y-91986315D01*
X109939985Y-91837424D01*
X109744860Y-92307335D01*
X109744161Y-93109147D01*
X110050354Y-93850192D01*
X110616826Y-94417653D01*
X111357335Y-94725140D01*
X112159147Y-94725839D01*
X112900192Y-94419646D01*
X113467653Y-93853174D01*
X113775140Y-93112665D01*
X113775839Y-92310853D01*
X113580240Y-91837466D01*
X113937190Y-91985685D01*
X114659640Y-91986315D01*
X115327338Y-91710428D01*
X115569975Y-91468214D01*
X115809975Y-91708633D01*
X116477190Y-91985685D01*
X117199640Y-91986315D01*
X117867338Y-91710428D01*
X118109975Y-91468214D01*
X118349975Y-91708633D01*
X119017190Y-91985685D01*
X119739640Y-91986315D01*
X120407338Y-91710428D01*
X120918633Y-91200025D01*
X121195685Y-90532810D01*
X121196315Y-89810360D01*
X120920428Y-89142662D01*
X120904000Y-89126205D01*
X120904000Y-86319566D01*
X121116524Y-86001501D01*
X121259600Y-85282209D01*
X121259600Y-84897791D01*
X121116524Y-84178499D01*
X120709078Y-83568713D01*
X120099292Y-83161267D01*
X119380000Y-83018191D01*
X118660708Y-83161267D01*
X118110000Y-83529238D01*
X117559292Y-83161267D01*
X116840000Y-83018191D01*
X116120708Y-83161267D01*
X115570000Y-83529238D01*
X115019292Y-83161267D01*
X114300000Y-83018191D01*
X113580708Y-83161267D01*
X113284000Y-83359521D01*
X113284000Y-83137355D01*
X113436507Y-83108659D01*
X113782306Y-82886144D01*
X114014289Y-82546625D01*
X114095904Y-82143600D01*
X114095904Y-80416400D01*
X114025059Y-80039893D01*
X113802544Y-79694094D01*
X113463025Y-79462111D01*
X113060000Y-79380496D01*
X110460000Y-79380496D01*
X110083493Y-79451341D01*
X109737694Y-79673856D01*
X109505711Y-80013375D01*
X109424096Y-80416400D01*
X109424096Y-82143600D01*
X109494941Y-82520107D01*
X109717456Y-82865906D01*
X110056975Y-83097889D01*
X110236000Y-83134143D01*
X110236000Y-83359521D01*
X109939292Y-83161267D01*
X109220000Y-83018191D01*
X108500708Y-83161267D01*
X107950000Y-83529238D01*
X107399292Y-83161267D01*
X106680000Y-83018191D01*
X105960708Y-83161267D01*
X105410000Y-83529238D01*
X104859292Y-83161267D01*
X104140000Y-83018191D01*
X103420708Y-83161267D01*
X102870000Y-83529238D01*
X102319292Y-83161267D01*
X101600000Y-83018191D01*
X100880708Y-83161267D01*
X100584000Y-83359521D01*
X100584000Y-71451172D01*
X100837691Y-70840218D01*
X100838308Y-70132886D01*
X100568194Y-69479160D01*
X100068471Y-68978564D01*
X99415218Y-68707309D01*
X98707886Y-68706692D01*
X98054160Y-68976806D01*
X97553564Y-69476529D01*
X97282309Y-70129782D01*
X97281692Y-70837114D01*
X97536000Y-71452587D01*
X97536000Y-83860434D01*
X97323476Y-84178499D01*
X97180400Y-84897791D01*
X95859600Y-84897791D01*
X95716524Y-84178499D01*
X95407542Y-83716075D01*
X95387992Y-83617790D01*
X95057631Y-83123369D01*
X95057628Y-83123367D01*
X93472108Y-81537846D01*
X93472352Y-81258584D01*
X93163650Y-80511468D01*
X92592538Y-79939359D01*
X91845963Y-79629354D01*
X91037584Y-79628648D01*
X90290468Y-79937350D01*
X89718359Y-80508462D01*
X89408354Y-81255037D01*
X89407648Y-82063416D01*
X89716350Y-82810532D01*
X90287462Y-83382641D01*
X90350330Y-83408746D01*
X90170000Y-83529238D01*
X89619292Y-83161267D01*
X88900000Y-83018191D01*
X88180708Y-83161267D01*
X87630000Y-83529238D01*
X87079292Y-83161267D01*
X86360000Y-83018191D01*
X85640708Y-83161267D01*
X85090000Y-83529238D01*
X84539292Y-83161267D01*
X83820000Y-83018191D01*
X83100708Y-83161267D01*
X82550000Y-83529238D01*
X81999292Y-83161267D01*
X81280000Y-83018191D01*
X80560708Y-83161267D01*
X80010000Y-83529238D01*
X79459292Y-83161267D01*
X78740000Y-83018191D01*
X78020708Y-83161267D01*
X77470000Y-83529238D01*
X76919292Y-83161267D01*
X76200000Y-83018191D01*
X75480708Y-83161267D01*
X74930000Y-83529238D01*
X74379292Y-83161267D01*
X73660000Y-83018191D01*
X72940708Y-83161267D01*
X72390000Y-83529238D01*
X71839292Y-83161267D01*
X71120000Y-83018191D01*
X70400708Y-83161267D01*
X69850000Y-83529238D01*
X69299292Y-83161267D01*
X68580000Y-83018191D01*
X67860708Y-83161267D01*
X67310000Y-83529238D01*
X66759292Y-83161267D01*
X66040000Y-83018191D01*
X65320708Y-83161267D01*
X64770000Y-83529238D01*
X64219292Y-83161267D01*
X63500000Y-83018191D01*
X62917712Y-83134015D01*
X62991646Y-82955963D01*
X62992352Y-82147584D01*
X62683650Y-81400468D01*
X62112538Y-80828359D01*
X61365963Y-80518354D01*
X60557584Y-80517648D01*
X59810468Y-80826350D01*
X59238359Y-81397462D01*
X58928354Y-82144037D01*
X58927648Y-82952416D01*
X59181176Y-83566000D01*
X57327379Y-83566000D01*
X57287544Y-83504094D01*
X56948025Y-83272111D01*
X56545000Y-83190496D01*
X53945000Y-83190496D01*
X53568493Y-83261341D01*
X53222694Y-83483856D01*
X52990711Y-83823375D01*
X52909096Y-84226400D01*
X52909096Y-85953600D01*
X52979941Y-86330107D01*
X53202456Y-86675906D01*
X53541975Y-86907889D01*
X53945000Y-86989504D01*
X56545000Y-86989504D01*
X56921507Y-86918659D01*
X57267306Y-86696144D01*
X57323432Y-86614000D01*
X59215954Y-86614000D01*
X59353856Y-86828306D01*
X59436000Y-86884432D01*
X59436000Y-89125368D01*
X59421367Y-89139975D01*
X59144315Y-89807190D01*
X59143685Y-90529640D01*
X59419572Y-91197338D01*
X59929975Y-91708633D01*
X60597190Y-91985685D01*
X61319640Y-91986315D01*
X61940724Y-91729688D01*
X61684315Y-92347190D01*
X61683685Y-93069640D01*
X61959572Y-93737338D01*
X62469975Y-94248633D01*
X63137190Y-94525685D01*
X63859640Y-94526315D01*
X64527338Y-94250428D01*
X65038633Y-93740025D01*
X65315685Y-93072810D01*
X65316315Y-92350360D01*
X65059688Y-91729276D01*
X65677190Y-91985685D01*
X66399640Y-91986315D01*
X67020724Y-91729688D01*
X66764315Y-92347190D01*
X66763685Y-93069640D01*
X67039572Y-93737338D01*
X67549975Y-94248633D01*
X68217190Y-94525685D01*
X68939640Y-94526315D01*
X69607338Y-94250428D01*
X69849975Y-94008214D01*
X70089975Y-94248633D01*
X70757190Y-94525685D01*
X71479640Y-94526315D01*
X72147338Y-94250428D01*
X72389975Y-94008214D01*
X72629975Y-94248633D01*
X73297190Y-94525685D01*
X73343750Y-94525726D01*
X69495287Y-98374189D01*
X60075482Y-98374189D01*
X59492272Y-98490197D01*
X59019639Y-98806000D01*
X58997851Y-98820558D01*
X55691370Y-102127039D01*
X55361009Y-102621460D01*
X55245001Y-103204670D01*
X55245001Y-116459001D01*
X55361009Y-117042211D01*
X55480472Y-117221000D01*
X55691370Y-117536632D01*
X57022892Y-118868154D01*
X57022648Y-119147416D01*
X57331350Y-119894532D01*
X57531000Y-120094531D01*
X57531000Y-124460000D01*
X57647008Y-125043210D01*
X57977369Y-125537631D01*
X58317058Y-125877320D01*
X56051803Y-125877320D01*
X56387470Y-125068945D01*
X56388528Y-123856375D01*
X55925475Y-122735702D01*
X55068808Y-121877538D01*
X53948945Y-121412530D01*
X52736375Y-121411472D01*
X51922680Y-121747684D01*
X51922680Y-76648758D01*
X71393607Y-76648758D01*
X71737858Y-77481909D01*
X72374738Y-78119902D01*
X73207287Y-78465606D01*
X74108758Y-78466393D01*
X74941909Y-78122142D01*
X75579902Y-77485262D01*
X75925606Y-76652713D01*
X75925649Y-76602416D01*
X86867650Y-76602416D01*
X87176352Y-77349532D01*
X87747464Y-77921641D01*
X88494039Y-78231646D01*
X89302418Y-78232352D01*
X90049534Y-77923650D01*
X90249533Y-77724000D01*
X92809468Y-77724000D01*
X92926975Y-77804289D01*
X93330000Y-77885904D01*
X94630000Y-77885904D01*
X95006507Y-77815059D01*
X95352306Y-77592544D01*
X95584289Y-77253025D01*
X95665904Y-76850000D01*
X95665904Y-75550000D01*
X95595059Y-75173493D01*
X95504000Y-75031983D01*
X95504000Y-74254074D01*
X95624289Y-74078025D01*
X95705904Y-73675000D01*
X95705904Y-72375000D01*
X95635059Y-71998493D01*
X95504000Y-71794821D01*
X95504000Y-71451172D01*
X95757691Y-70840218D01*
X95758308Y-70132886D01*
X95488194Y-69479160D01*
X94988471Y-68978564D01*
X94335218Y-68707309D01*
X93627886Y-68706692D01*
X92974160Y-68976806D01*
X92709978Y-69240528D01*
X92448471Y-68978564D01*
X91795218Y-68707309D01*
X91087886Y-68706692D01*
X90434160Y-68976806D01*
X89933564Y-69476529D01*
X89662309Y-70129782D01*
X89661692Y-70837114D01*
X89916000Y-71452587D01*
X89916000Y-71675165D01*
X89718359Y-71872462D01*
X89408354Y-72619037D01*
X89407648Y-73427416D01*
X89716350Y-74174532D01*
X89996360Y-74455031D01*
X89305965Y-74168354D01*
X88497586Y-74167648D01*
X87750470Y-74476350D01*
X87178361Y-75047462D01*
X86868356Y-75794037D01*
X86867650Y-76602416D01*
X75925649Y-76602416D01*
X75926393Y-75751242D01*
X75582142Y-74918091D01*
X75184000Y-74519253D01*
X75184000Y-71451172D01*
X75437691Y-70840218D01*
X75438308Y-70132886D01*
X75168194Y-69479160D01*
X74668471Y-68978564D01*
X74015218Y-68707309D01*
X73307886Y-68706692D01*
X72654160Y-68976806D01*
X72153564Y-69476529D01*
X71882309Y-70129782D01*
X71881692Y-70837114D01*
X72136000Y-71452587D01*
X72136000Y-74519527D01*
X71740098Y-74914738D01*
X71394394Y-75747287D01*
X71393607Y-76648758D01*
X51922680Y-76648758D01*
X51922680Y-58219871D01*
X114396000Y-58219871D01*
X114396000Y-63700129D01*
X114512008Y-64283339D01*
X114842369Y-64777760D01*
X115336790Y-65108121D01*
X115920000Y-65224129D01*
X116503210Y-65108121D01*
X116920000Y-64829631D01*
X117336790Y-65108121D01*
X117920000Y-65224129D01*
X118503210Y-65108121D01*
X118920000Y-64829631D01*
X119336790Y-65108121D01*
X119920000Y-65224129D01*
X120503210Y-65108121D01*
X120743253Y-64947729D01*
X121008975Y-65129289D01*
X121412000Y-65210904D01*
X122428000Y-65210904D01*
X122804507Y-65140059D01*
X123150306Y-64917544D01*
X123382289Y-64578025D01*
X123463904Y-64175000D01*
X123463904Y-62825000D01*
X123444000Y-62719220D01*
X123444000Y-61733288D01*
X123463904Y-61635000D01*
X123463904Y-60285000D01*
X123444000Y-60179220D01*
X123444000Y-59193288D01*
X123463904Y-59095000D01*
X123463904Y-57745000D01*
X123393059Y-57368493D01*
X123170544Y-57022694D01*
X122831025Y-56790711D01*
X122428000Y-56709096D01*
X121412000Y-56709096D01*
X121035493Y-56779941D01*
X120739991Y-56970091D01*
X120503210Y-56811879D01*
X119920000Y-56695871D01*
X119336790Y-56811879D01*
X118920000Y-57090369D01*
X118503210Y-56811879D01*
X117920000Y-56695871D01*
X117336790Y-56811879D01*
X116920000Y-57090369D01*
X116503210Y-56811879D01*
X115920000Y-56695871D01*
X115336790Y-56811879D01*
X114842369Y-57142240D01*
X114512008Y-57636661D01*
X114396000Y-58219871D01*
X51922680Y-58219871D01*
X51922680Y-56051803D01*
X52731055Y-56387470D01*
X53943625Y-56388528D01*
X55064298Y-55925475D01*
X55922462Y-55068808D01*
X56387470Y-53948945D01*
X56388528Y-52736375D01*
X56052316Y-51922680D01*
X121748197Y-51922680D01*
X121412530Y-52731055D01*
M02*
